<svg xmlns="http://www.w3.org/2000/svg" viewBox="0 0 100 100">
  <path d="M50 10 Q55 15 50 20 Q45 15 50 10 Z M50 20 Q40 30 35 40 Q30 50 35 60 Q40 70 45 75 L55 75 Q60 70 65 60 Q70 50 65 40 Q60 30 50 20 Z M35 75 L65 75 Q65 85 60 85 L40 85 Q35 85 35 75 Z" 
        fill="white" 
        stroke="black" 
        stroke-width="2"/>
  <circle cx="50" cy="15" r="3" fill="white" stroke="black" stroke-width="2"/>
  <line x1="45" y1="35" x2="55" y2="45" stroke="black" stroke-width="2"/>
  <line x1="55" y1="35" x2="45" y2="45" stroke="black" stroke-width="2"/>
</svg>