<svg xmlns="http://www.w3.org/2000/svg" viewBox="0 0 100 100">
  <path d="M30 75 Q25 70 30 65 L30 55 Q25 45 30 40 Q35 35 40 30 Q45 25 50 20 Q55 15 60 20 Q65 25 65 30 Q70 35 70 40 Q75 45 70 50 Q75 55 70 60 Q65 65 60 70 Q55 75 50 75 Z M30 75 L70 75 Q70 85 65 85 L35 85 Q30 85 30 75 Z" 
        fill="white" 
        stroke="black" 
        stroke-width="2"/>
  <circle cx="45" cy="35" r="2" fill="black"/>
  <path d="M60 25 Q65 20 70 25 Q65 30 60 35" fill="white" stroke="black" stroke-width="1"/>
</svg>