<svg xmlns="http://www.w3.org/2000/svg" viewBox="0 0 100 100">
  <path d="M50 10 Q45 15 40 20 Q35 15 30 20 L30 25 L35 30 Q40 25 45 30 Q50 25 55 30 Q60 25 65 30 L70 25 L70 20 Q65 15 60 20 Q55 15 50 10 Z M30 30 L70 30 L65 65 L60 70 L60 75 L40 75 L40 70 L35 65 Z M35 75 L65 75 Q65 85 60 85 L40 85 Q35 85 35 75 Z" 
        fill="white" 
        stroke="black" 
        stroke-width="2"/>
  <circle cx="35" cy="22" r="3" fill="white" stroke="black" stroke-width="2"/>
  <circle cx="50" cy="17" r="3" fill="white" stroke="black" stroke-width="2"/>
  <circle cx="65" cy="22" r="3" fill="white" stroke="black" stroke-width="2"/>
</svg>