<svg xmlns="http://www.w3.org/2000/svg" viewBox="0 0 100 100">
  <path d="M25 15 L25 25 L30 25 L30 20 L35 20 L35 25 L40 25 L40 20 L45 20 L45 25 L50 25 L50 20 L55 20 L55 25 L60 25 L60 20 L65 20 L65 25 L70 25 L70 20 L75 20 L75 25 L75 15 L25 15 Z M30 25 L70 25 L70 30 L65 35 L65 65 L70 70 L70 75 L30 75 L30 70 L35 65 L35 35 L30 30 Z M25 75 L75 75 Q75 85 70 85 L30 85 Q25 85 25 75 Z" 
        fill="white" 
        stroke="black" 
        stroke-width="2"/>
  <rect x="40" y="45" width="20" height="15" fill="white" stroke="black" stroke-width="2"/>
</svg>