<svg xmlns="http://www.w3.org/2000/svg" viewBox="0 0 100 100">
  <path d="M50 15 L50 10 M45 12.5 L55 12.5 M50 10 L50 20 M40 20 L60 20 L60 25 L55 30 L55 35 L60 40 L60 45 L55 50 L55 65 L60 70 L60 75 L40 75 L40 70 L45 65 L45 50 L40 45 L40 40 L45 35 L45 30 L40 25 L40 20 Z M35 75 L65 75 Q65 85 60 85 L40 85 Q35 85 35 75 Z" 
        fill="white" 
        stroke="black" 
        stroke-width="2"/>
  <circle cx="50" cy="22.5" r="3" fill="white" stroke="black" stroke-width="2"/>
  <line x1="47" y1="12.5" x2="53" y2="12.5" stroke="black" stroke-width="2"/>
  <line x1="50" y1="10" x2="50" y2="15" stroke="black" stroke-width="2"/>
</svg>